/* XPM */
static char *_8095744297d46de8c59fbc07df945e2bil0cumXAPcq47tB[] = {
/* columns rows colors chars-per-pixel */
"64 64 236 2 ",
"   c #030100",
".  c #0B0201",
"X  c #0C0A03",
"o  c #0A0B07",
"O  c #130202",
"+  c #1B0203",
"@  c #150A04",
"#  c #1B0B05",
"$  c #150408",
"%  c #1B0609",
"&  c #140D0A",
"*  c #1C0B0B",
"=  c #0C120C",
"-  c #14120D",
";  c #1C120C",
":  c #1C1312",
">  c #1C1B15",
",  c #1E1D1B",
"<  c #151714",
"1  c #0C1611",
"2  c #230203",
"3  c #2D0103",
"4  c #24050A",
"5  c #29030A",
"6  c #240A0B",
"7  c #2B0A0D",
"8  c #260905",
"9  c #33030A",
"0  c #3B020B",
"q  c #330A0D",
"w  c #380307",
"e  c #28140D",
"r  c #32140B",
"t  c #2A0D11",
"y  c #260E13",
"u  c #330C12",
"i  c #3B0C12",
"p  c #241413",
"a  c #2B1414",
"s  c #221915",
"d  c #241C1A",
"f  c #2C1C1B",
"g  c #2B1915",
"h  c #331314",
"j  c #341C1C",
"k  c #3C1A1D",
"l  c #381517",
"z  c #1C241D",
"x  c #24231D",
"c  c #2C221D",
"v  c #2C2518",
"b  c #32221D",
"n  c #3B231E",
"m  c #392515",
"M  c #3E1D21",
"N  c #331E21",
"B  c #262421",
"V  c #2C2522",
"C  c #242B24",
"Z  c #2E2D26",
"A  c #2F2D29",
"S  c #29292C",
"D  c #332423",
"F  c #3C2424",
"G  c #332C26",
"H  c #3A2A25",
"J  c #3E2529",
"K  c #322D2A",
"L  c #3B2C2A",
"P  c #372728",
"I  c #2D322B",
"U  c #2C3228",
"Y  c #313125",
"T  c #33312C",
"R  c #3B322C",
"E  c #37392B",
"W  c #252E33",
"Q  c #292D30",
"!  c #342D32",
"~  c #2E3232",
"^  c #333432",
"/  c #3B3532",
"(  c #3B3A34",
")  c #393C37",
"_  c #43040A",
"`  c #470915",
"'  c #590C18",
"]  c #45151B",
"[  c #4B141B",
"{  c #431B1C",
"}  c #4A1C1E",
"|  c #461316",
" . c #59181D",
".. c #5C000F",
"X. c #65071A",
"o. c #68151C",
"O. c #75111C",
"+. c #740916",
"@. c #46271B",
"#. c #593617",
"$. c #431D23",
"%. c #4C1D22",
"&. c #4C1722",
"*. c #541C24",
"=. c #5D1D24",
"-. c #5B1421",
";. c #5E0D22",
":. c #6C0B22",
">. c #661724",
",. c #77142D",
"<. c #432424",
"1. c #4B2224",
"2. c #422924",
"3. c #4C242A",
"4. c #422B2B",
"5. c #4B2C2C",
"6. c #482927",
"7. c #542425",
"8. c #57262A",
"9. c #42322C",
"0. c #45352A",
"q. c #54372B",
"w. c #4A2D31",
"e. c #542C32",
"r. c #433432",
"t. c #493233",
"y. c #4C3B36",
"u. c #443C3B",
"i. c #4A3C3A",
"p. c #423837",
"a. c #5A3233",
"s. c #573738",
"d. c #672529",
"f. c #632A35",
"g. c #65363B",
"h. c #692E27",
"j. c #3A413B",
"k. c #44423D",
"l. c #49403A",
"z. c #40493D",
"x. c #57433D",
"c. c #664736",
"v. c #6E4523",
"b. c #6C451B",
"n. c #593F41",
"m. c #653D41",
"M. c #3F4A44",
"N. c #4A4642",
"B. c #4D4A44",
"V. c #484A44",
"C. c #554444",
"Z. c #534D4A",
"A. c #5A4D49",
"S. c #574A45",
"D. c #57524C",
"F. c #5A5653",
"G. c #5C5A54",
"H. c #585955",
"J. c #4D534D",
"K. c #644A4A",
"L. c #674846",
"P. c #625552",
"I. c #635D5B",
"U. c #685957",
"Y. c #765858",
"T. c #6B5150",
"R. c #5D625C",
"E. c #63625D",
"W. c #6E645E",
"Q. c #7D645D",
"!. c #685E60",
"~. c #7B5F61",
"^. c #6C6663",
"/. c #656C64",
"(. c #6B6A66",
"). c #686967",
"_. c #746E6B",
"`. c #766968",
"'. c #74716C",
"]. c #797974",
"[. c #6E726C",
"{. c #821531",
"}. c #95653B",
"|. c #A4622F",
" X c #845D5F",
".X c #8C6B50",
"XX c #BA7C47",
"oX c #B37B54",
"OX c #837C7B",
"+X c #857876",
"@X c #8B6E6D",
"#X c #7C817B",
"$X c #87827E",
"%X c #8A8984",
"&X c #918684",
"*X c #968B8A",
"=X c #8B918A",
"-X c #95938D",
";X c #9B9591",
":X c #9D9B98",
">X c #979892",
",X c #9B8F94",
"<X c #A49B98",
"1X c #9BA29C",
"2X c #A3A29E",
"3X c #AB9FA1",
"4X c #A4A4A0",
"5X c #ACAAA5",
"6X c #AEACAA",
"7X c #A9A7A3",
"8X c #B3AEAB",
"9X c #B5ABA7",
"0X c #AFB2AC",
"qX c #B3B3AD",
"wX c #B9B2AE",
"eX c #BAB6B3",
"rX c #BDBCBA",
"tX c #B7B8B4",
"yX c #B8AEB1",
"uX c #C4BCBB",
"iX c #C5B9B8",
"pX c #C3A9AA",
"aX c #BDC1BB",
"sX c #C3C2BD",
"dX c #C8C0B9",
"fX c #D0BEC0",
"gX c #C4C4C2",
"hX c #CAC5C1",
"jX c #C5CAC3",
"kX c #CACAC5",
"lX c #CDCDCA",
"zX c #D4CACA",
"xX c #CCD1CB",
"cX c #D4D2CD",
"vX c #DCD2CF",
"bX c #D9D7D2",
/* pixels */
"A A A A A A A A A A A A K K K K T Z T K K K K K K K K K K K K K L L L L L L K K T T T T I T I Z Z Z Z Z A A A A A A A A A A A A ",
"A A A A A A A A A A A A K K K K K V x T T T T T T T T T T T T T T T T T T T T T T K Z Z U U U U Z Z Z Z A A A A A A A A A A A A ",
"A A A A A A A A A A A A K K K K T Z K K K K K K K K K K K K K K L L L L L L K K Z Z Z Z Z Z Z Z Z Z Z Z A A A A A A A A A A A A ",
"A A A A A A A A A A A A K K K K / T F.Z Z Z Z Z Z Z Z Z Z Z Z Z Z Z Z V Z Z Z Z V Z Z Z Z Z U Z Z Z Z Z A A A A A A A A A A A A ",
"A A A A A A A A A A A A K K K K A u.^.G.K T / A K K K K K K K K L L T L L K K K V Z > U U Z V B Z ( T Z A A A A A A A A A A A A ",
"A A A A A A A A A A A K K K K K T ^./ Z.Z.Z T V K K K K K K K K G G G G K K K K Z < < T T I - x T ) Z Z A A A A A A A A A A A A ",
"A A A A A A A A A A Z G G G G G k.E.T T E.K Z V K K K K K K K Z G Z Z Z G K K K V   x T T o o ( T T Z T A A A A A A A A A A A A ",
"A A A A A A A A A A Z G G G G G k.F./ Z N.B.V T L L L L L L L L V V V V L K K K >   T x -   Z ( T x ( ( A A A A A A A A A A A A ",
"A A A A K K G Z Z Z Z G Z Z Z Z D.N.V V G D.T c D 4.4.F J j F 4.4.p t.D D L G K X   T >   - k.K T Z.G.Z A A A A A A Z Z A A A A ",
"A A A A K K G Z Z Z Z G G K c l.].u.G G G l.Z.G n.~.~.C.M M <.j * # g f D R G d . d x X   / / k.I.F.) A A A A A A A Z Z A A A A ",
"A A A A K K G Z U U Z G D G c l.^.R G l.B.B.P.i.Y.K.T.Y.t.a J U.&X<X*X+Xr.s D p ; s X . s u.G.(.Z.N.K K A A A A A A Z Z Z Z Z Z ",
"A A A A K K G Z U U Z G D D D D 9.G G P.+XW.P.A.K.<.j i.t.g A.9XbXjXlXcXhX+Xg % s & @ O R _.^.p.u.K K Z A A A A A A Z Z Z Z Z Z ",
"K K K K K K G Z U Z Z G G G G G L b 9.U.P.L A.U.h M 4.g b &XwXI.-XjXsXsXsXvXU.$ p O * O C.A.r.i.K T T T A A A A A A Z Z Z Z Z Z ",
"K K K K K K G Z Z Z Z G G G G H 9.x.b `.4.g 0.K.w.k O * P.5XcXlXE.2XsXkXsXcXvXc O e # 6 4.J J L K A A A A A A A A A Z Z Z Z Z Z ",
"K K K K K K G Z Z Z Z G G G G H g x.s.s.6.6.F s.e.M % D %X>X) z.>XH.sXsX(.V.aXH.O + a j 4.K.4.D Z Z Z Z Z Z A A A A Z Z Z Z Z Z ",
"K K K K K K G G Z I Z G G G H H n K.x.s.h 6.l s.3.k 6 / -Xj.^ < ].(.7X>X- I /.=XO 4 + y.K.t.j b V V V V A Z A A K K Z Z Z Z Z Z ",
"K K K K K K G G Z K Y c H H H b n q.q.L.{ i i 3.a.k O / %X) o o $X:X-X:X= = [.<X+ q 6 s.e.$.9.G G G Z Z I A Z Z G G G Z Z Z Z G ",
"K K K K K K G G G L L G D H F n 2.<.s.a.} | | &.e.k O K ].1XR.).sX4X<XlX].'.bX+X9 9 { 5.L.$.F b H p Z Z A A Z G K G G G G Z Z Z ",
"K K K K K K G G G G R r.H v j 6.6.k q.1.%.] [ i %.k O B V.=XtXkXrX6XqXqXwX5X].L 9 8.i 8.8.] e.5.2.p D Z A A G G K K G G G G U U ",
"K K K K K K G G K G 4.y.P.A.0.h <.5.k 1.7.} ` 0 ] M $ > j.M.J.).'.F.E.D.B.Z.%XD u 8.7.%.7.a.s.7 1.4.L G K K G G L L H H G G U U ",
"K K K K K K G G L H H H Y.L.Q.L.n s.L.3 7.| 3 ` 9 t * & z J.[.].>X%X4X:X:XkX%X. p 6 6 7 k 4 k <.5.j D 9.G D P t.s.e.5.L G G Z U ",
"K K K K K K G G L L H H K.L.<.Y.q.7 c.e.a.7.w ` 3 2 $ .   C H.[.$X-X4XhXbXOX@   @ O 6 <.a 6 $.3.3.6.l F 4.L t.s.e.5.J D G Z Z Z ",
"K K K K K K G G L J H 2.6.Q.L.l 2 l r l 3 0 0 [ i 5 .       1 I / G.).(.k.. $ . O + u ] 2 7 8.*.%.1.s.4.t.t.5.J L G G Z Z Z Z Z ",
"K K K K K K G G L H 2.2.<.L.Y.{ l h r 8 7 %.| _ -.` 2 . .   = ~ =XqXaX_.. * $ % O j k 2 + q d.>.8.g.g.3.e j J P K I T T Z Z Z Z ",
"K K K K K K K G G H 2.<.{ 5. Xm.] i 7 # j 7 9 w ..:.' 0 O   o j.1XjXaXI.  . * $ $ * * t h 7.=.' d.d. .| n D P G Z Z Z Z Z Z Z Z ",
"K K K K K K K G G H 2.1.1.1.a.m.[ | a p # 4 ` X.X.{.,.` + f H./.R.(.I.$XF.. % . $ . : & n 3.=.' o.o.o. .n D G G Z Z Z Z Z Z Z Z ",
"K K K K K K K G G H 2.<.1.1.{ 8.f.} 6 O + 0 :.,._ 0 0 q n.^.-X$XrX5XwXzX&X!.C.*   -   & $ + w ' O.O.o.7.n D G G Z Z Z Z Z Z Z Z ",
"K K K K K K K G G H 2.<.1.1.1.] | i 6 + 3 ` :.X.9 + y.*X5XG.tX].%XcXiXuXOX].uX*XS   o . + O 3 >.O.O. .@.n D Z Z Z Z Z Z Z Z Z Z ",
"Z Z Z Z Z Z Z G T D n 6.] 7.g.a.h 5 5.7 5 k 2 4 c ].qXsXqXk.tXeX_.uX*Xf ].].eXfXiXP.. * + 0 >.>.+.O. .@.@.D G Z Z Z Z Z Z Z Z Z ",
"Z Z Z Z Z Z Z G D R 6.@.{ ] @.g.T.s.m.l O p - /.=XaXjXqX).j.2XuXOXV * u.uX_.).eXzXzX,XJ + *.' X.+.O. .} @.H G Z Z Z Z Z Z Z Z Z ",
"Z Z Z Z Z Z Z G D L 2.@.} } 9 3 q h h + @ ( z./.sXqX0XH.< H.5X'.s s $ ^.zX[.< G.,XyXfX3XC.q 0 _ X.o. .} <.F G G Z Z Z Z Z Z Z Z ",
"Z Z Z Z Z Z Z G T D n 6.1.] | w 2 7 4 . k.>X7XI -X>Xp.  < J.<XL % s Z.<XhX%X= Q !.6XrX&XF k 9 ` o.o.>.} 1.<.D G Z Z Z Z Z Z Z Z ",
"Z Z Z Z Z Z Z G G H H 2.| } [ 0 h a O i.F.[.xX/.^ u.+ 6 < [.I.O L G.(.tXkX:X=   , ).7X=Xa u m.3 ' X.' >.*.6.H G G G K K T T T K ",
"Z Z Z Z Z Z Z G G H H 1.}  .;.-.k 6 i.&XkX#X].%X> * t 4 V R.R U.<XtXZ.6XgX6XB     , ).N.4 $.fX@Xw >.-.=.*.6.H G G G K K T T T K ",
"Z Z Z Z Z Z Z G G H H 1.-.>.:.>.+ i.&XwXuXlX].Z & . h % T H.OXiXhXcX=X).rXgXN.      N.u.6 Y.+XpXY.i 7.%.1.2.H G Y U T T T T A A ",
"Z Z Z Z Z Z Z G G H 2.3. .>.>.` 7 N.OXhXsX5XD.. > : t * d ].wXuXuXgXjX).tXcXH.o -   . f f @X*X`.pX5.{ 6.2.H G G Y T T T T K A A ",
"Z Z Z Z Z Z Z G G H <.1.7.d.*.+ S._.G.E.eX_.. . . @ $ $ K ^.<XuXzXsXgXaXH.4X).& d $ O N P.*XzX;X+X$Xh 5.H G G G K I K K K K A A ",
"Z Z Z Z Z Z Z G H H <.1.} 7.u 8 B.%XcX>XZ.p.. * O . . . p.N.Z.9XgXsXrXjX=X) R.- * p 6 % & Z.;XvX'.P.k F G Y Y G A A K K T T A A ",
"Z Z Z Z Z Z Z G H H 1.1.} 7.8 ; V.=X0X2Xu.. . O $ . . : `.%XF.Z.6XsX8X:XG.4XxXOX% a t O   Z P.<XeX4.2 <.G U G G A A A K T K A A ",
"Z Z Z Z Z Z Z G H J 2.<.1.1.6 . E /.E.u.7 + O 5 4 O : u.;XrX:XN.I.OX_.k.).xX0XsXp.* 2 6 O . c A.+Xk u <.G Y G G K A K K K T A A ",
"Z Z Z Z Z Z Z G G H H J 6 n b . o X O 2 >.,.` &.$.O L OX6XuXuX&XL d d A ].7XaXxX<X% O e ; & @ # 2 w 1.2.F H H H K K A A K K K K ",
"Z Z Z Z Z Z Z G G G G G p F J * . @ a [ :.X.;.` 9 t C.^.lXyXuX_.. .   . F.2X6XtXzXU.. p p ; ; 8 ` >.8.6.2.H H L K A A A K K K K ",
"Z Z Z Z Z Z Z Z Z Z G G F h a 4 4 7 k %.[ -._ ` 2 w.D ].gXgXyXD O $ $ . V $X7X-XiX9Xf . @ # e 7  .d.8.5.9.Y U I A K A A K K K K ",
"Z Z Z Z Z Z Z Z Z Z G G j <.<.7 k { { ] &.3 ] 3 i l * *XgXrX+X. + y p O @ I.8X_.$X9XA.O O @ @ 8  .o.[ 6.9.E I U T K A K K A A A ",
"K K K K K K G G V V c c H F M q { $.i { $.$.<.5 1.h L 8XqXgXp.O 4 4 4 % O L ;X;Xc @ D ; O @ @ l  .o. .@.H T T I T T K K A A A A ",
"K K K K K K G G x V D H H F F j k 7 l 2 3.m.h j l t D 5XgXtXX $ 4 5 4 4 $ L $X&XL ; b i.O # b 8 *. .@.<.H L L K K T K K A A A A ",
"K K K K K K G Z T K F M 6.2.D L G L L Y.g.*.% . 7 2 C.u.) B.. y 5 5 5 4 O g p.L A.@ R '.; ; . F 1.1.<.F J 2.<.4.L K K A A A A K ",
"K K K K K K K Z Z G J 6.6.H G T / S.Y.s.=.f.+ / % 4.<XuX(.B d * 5 5 4 4 4 O i.$XiX+Xc <X@ & s a <.<.F F J 1.3.6.L K K A A A K K ",
"A A A A A A A A A K L L / L T / V.P.e.*.f.%.. N.(.>XuXlX=X& & O 6 + O O % O / _.uX<XR <XF.. c # F 9.9.F n J 5.t.L K A A Z A K L ",
"A A A A A A A A K K A K T T ^ Z.N.L a.f.8.$.O p.>XkXrXsXD.    . * + O $ 6 O > G.>XuX<X;X_.# * g g 9.y.9.H J 4.L L K A A Z A K L ",
"A A A A A A A A K K K K Z / B.p.G r.C.$.$.h * i.&XhXiXeXZ   - . @ 6 6 6 7 O   z.%XdXdXiX;Xd ; g D v H x.9.L J H L K A A A A K L ",
"A A A A A A A A K K K A ( ) K V r.i.D F J % * C.;XsXzX9Xc s d . O p a 7 5 % X E $X7XeXzX5Xc V ; R D D R l.R G D L K K A A K K K ",
"A A A A A A A A T T ) ( T T K K C.L V D L $ f S.=XaXtX7Xf F <.k 6 O O 6 k +   z E.OX8XcX;X- R s ; G G R L S./ Z K V G T c V K T ",
"A A A A A A A A T k.( A T T K K L D D f L @ s G.].aXtX,Xt M 3.3.6.g + O 7 j :   , F._.`.V d Z V d x R G Z Z B.Z Z Z L V D V Z I ",
"A A A A A A A A ) ( Z K K K T K V V d V D & X ) E.2X8XP.t M 3.3.<.w.P O a a -     & X . > K / V Z x Z Z B T T T x ( G C.i.G x I ",
"A A A A A A A A ( K K V T K T T V x V / f s   - I J.d % j M <.k J j c L f ; &   . ; s > A T B A K Z , Z I A x c E e c..XQ.l.V I ",
"A A A A A A A A K K K K T K Z Z Z A K K Z B :       & D J F D D L & - L L Z x : O f L Z A V Z G D D S A C Z v x.@.b.XXXX.Xp.V T ",
"A A A A A A A A K K K K T K Z Z Z A A Z Z V V z = = , K V D K D V K K V Z G K G N j D Z Z Z A G G Z Z A Z K n @.v.XX|.XXv.g R Z ",
"Z Z Z Z A A A A K K K K T K A Z A A A K A Z B x x - C C < A 4.F R G G T K G Z G w.F V V Z A K A A A W Q T G m #.oX|.oXv.#.@.b L ",
"Z Z Z Z A A A A T K K K T K A Z A A A K K A V B G - I C = A t.J G Z Z G K K K G w.4.D V A A K A Q W W W A G @..X}.oXc.m @X5.L L ",
"Z Z Z Z A A A A I I K K A A A A A K K K K K Z Z x B Z Z K L P P K A A A K K K L J J L K A A K K Q W W W V R x..X}.#.v T Y Y T K ",
"Z Z Z Z A A A A I I K K A A A A A K K K A A Z Z x C Z K L L P K K A A A K K K L J J L K A A K K A A W W S D @.q.r @.( ^ U U I T ",
"Z Z Z Z A A A A K K K K A A A A K K K K A A A A z C Z K L L L K K A A A K K K L J J L K A A K G G Z A Q A Z b m m n T ~ T K ^ ~ ",
"Z Z Z Z A A A A K K K K A A A A K K K K A A A A z C Z K L L L K K A A A K K K L J J L K A A K G D D Z Q A A R 9.H 9.R A ! ! ! ~ "
};