/* XPM */
static char *_d33d40fb0a343a2c11cdf21c4d84e92qwF9BQ4nX692KsDf[] = {
/* columns rows colors chars-per-pixel */
"64 64 256 2 ",
"   c #050202",
".  c #0E0503",
"X  c #0D0805",
"o  c #0E0709",
"O  c #090B0B",
"+  c #110602",
"@  c #1B0200",
"#  c #140A05",
"$  c #1B0D04",
"%  c #160C09",
"&  c #1A0C0A",
"*  c #1C1106",
"=  c #1D120A",
"-  c #16120B",
";  c #161211",
":  c #100B11",
">  c #230200",
",  c #2B0200",
"<  c #240C01",
"1  c #2B0A00",
"2  c #240D0C",
"3  c #320300",
"4  c #340B00",
"5  c #3B0D00",
"6  c #3B0502",
"7  c #221305",
"8  c #2A1202",
"9  c #231907",
"0  c #23150A",
"q  c #2A150C",
"w  c #25190A",
"e  c #2C1A0B",
"r  c #2A1A06",
"t  c #331401",
"y  c #3B1300",
"u  c #3B1B02",
"i  c #331D0D",
"p  c #3B1D0B",
"a  c #331707",
"s  c #2A1A14",
"d  c #331D11",
"f  c #371C13",
"g  c #290F11",
"h  c #35200F",
"j  c #3B220D",
"k  c #3B2508",
"l  c #2C221A",
"z  c #362212",
"x  c #3B2413",
"c  c #3D2A1D",
"v  c #372619",
"b  c #3F331B",
"n  c #3A2B25",
"m  c #372E2B",
"M  c #1B1227",
"N  c #440E00",
"B  c #460801",
"V  c #431500",
"C  c #4C1300",
"Z  c #441C01",
"A  c #4B1C00",
"S  c #451C09",
"D  c #531C00",
"F  c #551803",
"G  c #510B00",
"H  c #442103",
"J  c #4B2203",
"K  c #43230D",
"L  c #49270B",
"P  c #532400",
"I  c #5B2300",
"U  c #542B02",
"Y  c #5D2C02",
"T  c #542A0A",
"R  c #56290C",
"E  c #5B3509",
"W  c #422413",
"Q  c #442A14",
"!  c #4C2C14",
"~  c #432B1B",
"^  c #4C2D1B",
"/  c #462614",
"(  c #562C16",
")  c #493219",
"_  c #5B3314",
"`  c #54331C",
"'  c #5B341C",
"]  c #5C391D",
"[  c #553616",
"{  c #4D380B",
"}  c #622B00",
"|  c #672700",
" . c #633404",
".. c #6B3400",
"X. c #67380A",
"o. c #723500",
"O. c #743904",
"+. c #652E15",
"@. c #643B1E",
"#. c #6B3C1D",
"$. c #653717",
"%. c #743918",
"&. c #432C23",
"*. c #4B3424",
"=. c #47342A",
"-. c #543523",
";. c #5B3622",
":. c #5D3A22",
">. c #563C29",
",. c #583B34",
"<. c #4C342C",
"1. c #633C23",
"2. c #6B3D24",
"3. c #653B27",
"4. c #703827",
"5. c #621600",
"6. c #6A430C",
"7. c #774508",
"8. c #694419",
"9. c #794717",
"0. c #7A5416",
"q. c #584437",
"w. c #5E4121",
"e. c #654126",
"r. c #6C4224",
"t. c #64432B",
"y. c #6C432B",
"u. c #6C4A2C",
"i. c #734324",
"p. c #7A4625",
"a. c #7C4A25",
"s. c #73462C",
"d. c #79472A",
"f. c #754A2C",
"g. c #7D4A2B",
"h. c #734A24",
"j. c #7D512B",
"k. c #765327",
"l. c #6C4A32",
"z. c #674936",
"x. c #744B33",
"c. c #7D4D33",
"v. c #744836",
"b. c #795337",
"n. c #6C523B",
"m. c #392D41",
"M. c #5A4945",
"N. c #634D44",
"B. c #66544C",
"V. c #695850",
"C. c #565066",
"Z. c #766C77",
"A. c #6A5B62",
"S. c #87480B",
"D. c #864C18",
"F. c #8A531B",
"G. c #965619",
"H. c #91530C",
"J. c #834C25",
"K. c #824C2C",
"L. c #8A4E2C",
"P. c #814629",
"I. c #81522B",
"U. c #885727",
"Y. c #945B26",
"T. c #834D33",
"R. c #8A4E31",
"E. c #845234",
"W. c #8A5434",
"Q. c #8B5C34",
"!. c #875939",
"~. c #935935",
"^. c #A45E2B",
"/. c #9B632C",
"(. c #96662A",
"). c #8B633A",
"_. c #9B6B3B",
"`. c #986637",
"'. c #936B2F",
"]. c #A6672B",
"[. c #B9772A",
"{. c #A56B34",
"}. c #A76B3A",
"|. c #B56D35",
" X c #A5723C",
".X c #AC743B",
"XX c #AB7537",
"oX c #B77838",
"OX c #AD712B",
"+X c #A55C14",
"@X c #C77D37",
"#X c #C17829",
"$X c #865A42",
"%X c #8F5647",
"&X c #8A6545",
"*X c #986A44",
"=X c #9D7249",
"-X c #997456",
";X c #916A56",
":X c #A46C46",
">X c #A87747",
",X c #B77B47",
"<X c #A67A53",
"1X c #B47D53",
"2X c #B96F42",
"3X c #877772",
"4X c #C57B48",
"5X c #BD8338",
"6X c #AD823D",
"7X c #CA852C",
"8X c #C4843D",
"9X c #C98738",
"0X c #D48B35",
"qX c #D58F30",
"wX c #BA8647",
"eX c #AA8456",
"rX c #B98757",
"tX c #B38F52",
"yX c #B78B65",
"uX c #BC9268",
"iX c #AF8C70",
"pX c #9E826D",
"aX c #C78848",
"sX c #D48A46",
"dX c #C8944B",
"fX c #D4934D",
"gX c #D89849",
"hX c #C58B53",
"jX c #C68957",
"kX c #CE955B",
"lX c #C89657",
"zX c #D29152",
"xX c #D69A58",
"cX c #D28D57",
"vX c #E3974E",
"bX c #D4A252",
"nX c #E7A557",
"mX c #E7AC47",
"MX c #C89667",
"NX c #D49B67",
"BX c #C79372",
"VX c #E29C64",
"CX c #D8A668",
"ZX c #D4A879",
"AX c #D1AA6E",
"SX c #E5AA68",
"DX c #E4A874",
"FX c #E8B379",
"GX c #F1B26B",
"HX c #F2C26E",
"JX c #73708D",
"KX c #928897",
"LX c #A59296",
"PX c #E5BD8A",
"IX c #C7B5B3",
"UX c #F1C583",
/* pixels */
"X X X X X X X X X X X X X X X X X X X X X X X X . . o o X o o o   + % O     O O - .   # % o O : X . X X X X X . X X X X X X X X ",
"X X X X X X X X X X X X X X X X X X X X X X X X X . o o o o o o # + . X O O O X   + $ +   . : : o . X . X X X X X X X X X X X X ",
"X X X X X X X X X X X X X X X X X X X X X X . . . . . . o o o o $ + . . X X X . $ $ @ + + & o   . . . . . . . . X X . . . . . . ",
"X X X X X X X X X X X X X X X X X X X X X X X . . . . . o o o + + + # % + . @ @ @ @ > t f s 2 % # + # . . . . # X . . . . . . . ",
"X X X X X X X X X X X X X X . . X X X X X X . . . . . . . . . + + + # & & @ @ > > S ' ! t @ @ + % # X . . . # # . . . . . . . . ",
"X X X X X X X X X X X X X . . . . X X X X X + + . . . . . . . + #     + & @ > > 4.s.+.4 @ @ @ + % # # . . . # # . . . . . . . . ",
"X X X X X X X X X X X X X X . . . + + + + + + + + + + + + + + + % + + $ @ @ , N %XR 3 , 4 p z l $ % # . . . + # + + + + + + + + ",
"X X X X X X X X X X X X X X . . + + + + + + + + + + + + + + + + - s l s @ @ 5 4.$XB 3 +.v.p @ w & % # + . . + # + + + + + + + + ",
". . . . . . . . # # # # # # # X . . . . . + . . # # . . . + + +   . + q.N.@ , %XF B P.!., @ 8 . . . # # + + . . . # .     % & + ",
". . . . . . . . # # # # # # # # + + + + + + + + # % % % + + . . # * 7 . &.,., v.B 4.+.C S S 8 z 0 = #     . # # .   # l l .   # ",
"+ + + + + + + + # # # # # # # # + + + + + + + + + + # % # + + + $ $ i @ f ` , F 6 %.%.+.2.` < @ $ + + + + + + + + . s <.m +   & ",
"# # # # # # # # # # # # # # # # # # # # # # # + % + + + # # # $ < @ @ u 1 , V N 3 6 B C A V y W + + + # # + + # . = s l s # + # ",
"# # # # # # # # # # # # # # # # % % % % # # # # = # # $ * # # $ > V P h.!.i.+.D `.{.%.I I 3 > > < # + + + . + =   & & .   # #   ",
"# # # # # # # # % % % % % % % % % % % % # # # # * # # * # . + < X.U.1X1XMX`.5 Y.,X,XaX,X}.`.%.4 @     # & + + + # + . . + + + + ",
"# # # # # # # # % % % % % % % % % & & & & & $ $ # # $ $ + # v z.1XoXhX/.D.} I kX,X].aXaX|.jXjXg.~ = . # 0 & + . = + + $ = # # $ ",
"# # # # # # # # % % % % % % % % $ $ & & & % % % $ $ 7 $ @ t b.uX.X[.aXoX..S.zX8X8XsX@X[.aXoX|.jXiXz.< . + # # # + % # + + # # + ",
"% % % % % % % % % % % % % % % $ $ $ $ & % ; ; ; = $ 8 1 V .X|.@X8X[.fXG.5.4XvX0X0XqXqX7X9XsX|.,X:X_ H < $ + - X # # # # # # # # ",
"% % % % % % % % % % % % % % & $ $ $ $ & ; ; ; ; . e < 4 O.oX@X#X5XaXsX].+X@XsXvX0X7XqXvX0X9XsX|.| Y.=X[ + # =   X # # # # # # # ",
"% % % % $ $ $ $ $ $ $ $ $ * $ $ $ $ $ = ; ; ; ; & r @ T 1XjXcXoXdXfXsX| H.GXfXnXfXGXxXxXdXaXcX|.G.,XrX).8 # X # # # # # # # # # ",
"$ $ $ $ $ $ $ & * * * = = = = = 7 * * = = ; ; - s + @ &XyX<X1XNXaXdXH.S.zXfXxXkXlX>X0.J.>XjXMXjXxX,X X<Xt.@   ; % % # # $ # # % ",
"$ * * $ & & & = = * * = = 0 0 0 7 * * = = = = = w . >.pXx.b.g.yXCXxXwXC G.FXCXMXb.u -XiXu.r.*XjX8X[.,X:X&X@ $ & % % % $ % % % % ",
"* * = = = 0 0 0 0 9 0 9 0 9 0 9 7 * * 7 9 9 0 0 s . N.z.i n.W 1.MXkXO.O.lXNXeXk.@ V.IX3X<.1 > rX9X#X5X_.-X@ 0 + & & & & % % % % ",
"0 9 9 9 9 9 9 w 0 9 9 9 w w w 9 9 7 9 9 7 9 w 9 d @ M.$ v V.q t :XNX7.5 6XUXk.k m : Z.C.  d z.X.gX7XOX{.<X> < & & & & & & % % - ",
"9 9 9 w w w w w 9 9 9 w w w w 9 9 9 9 9 9 r r r @ $ V.. M.M.s <.R ZXF...lXAX{ z ; : C.KXZ.=.a U [.qX[.XX).1 < & & 2 & & & $ - - ",
"e e w e e e r w w w w w w w w w 9 w 9 r e r e e q @ B.l Z.3XLXn R ,X..P lXtX{ b m C.JXKXKX+ ) J 7X7X[.XXE.> > f g g 2 2 $ $ * * ",
"e r q q e e q w q r q r q r q r 9 9 9 r r r e e e $ q.l M.3X<.~ T jX/.Y tXFX8.. n Z.M m.A.&.t Q.9X[.OX>X$.> 1 g g g g q q w w 0 ",
"d e e e i e e e e r e r e r e r r r r r r r r r d @ <.N.0 M.$ @ d.NXCX7.(.PXeXk q M.n M.v / [ 1X5XoX{._.t 1 i 2 q q a d d d d d ",
"z z d d z z z i e e e e e e e e e e e e e e r e e < d 3X,.~ a u yXMXFX(.Y.AXZXyX[ > / ` K c.BXrX.XwX X#.@ 8 ~ q i i p p p f d d ",
"x z z z z z z i i i i i i i i i i i i i e e e e i ~ < q.LX&Xx.iX=X9. XF.F./.~.`.MX>XrX`.rXjXjX2X,X:Xj.t t p ~ z x W K K W W ~ ~ ",
"z z i i z z i i h h h h z h h i j j j z z v v v v ~ j @ &XBXuXZX_.Q.wX/.2X{.^.].S.wXxXdXzXaXoXjX1Xi.J 1 >.~ z ~ Q ! ! ! ! ^ ^ ^ ",
"x z z z z z z i z z z z z z z j j j x x v v n n c j Q > 4 _.rX1X_.tX1X9.,X2X4XaX@X9X7X9X[.@X|.^.p.V y j =.=.x ) ) [ ' ' ' ( ! / ",
"x x x x x x x j j j j j j j j z x W W ~ ~ c &.&.c ~ > b.H 4 X.rXrXAXQ.C 4XjXaXaX[.@X[.7X8X|.G.| 4 > ^ >.q <.*.) ] ] @.@.@.R S y ",
"x x x x W W j k j Q W p W j >.a &.,.&.^ Q < 8 i > @ ,.;Xt u.t t j.<Xg. .>XMXrXhXhX.X X:X8._ > t ^ -.~ ~ *.x j ] ' 2.g.g.i.@.$._ ",
"Q Q Q Q Q W W W u ! K K -.p Q t.` , @ J T 8.&Xu.l.n.;.t Z eXeXk.5 V y Z X.9.X.} } Y P y @ @ r &.*.f ~ *.j -.t.Z @.i.K.K.K.i.8.8.",
"~ ~ ~ Q Q Q Q Q ! K [ ` K -.^ t , F._._.wX>X>XrX>X XP 5 '.XX6XwXMX+.A 9.X.Z A } I I a.#.H k ) . Q ~ Q Q ) Q ! ' r.d.T.R.K.K.g.d.",
"^ ^ ^ ^ ! ! ! ! ] ! ` ] K t.W H wX5X8XwXXX.XXXF.D , ..oXdXlXUXNXD 9.1XrX XXXwXoXhXrX_.V @.[ Q Q @ -.-.p K ) ! ] d.g.K.R.K.K.g.j.",
"` ` ` ` ` ` ` [ ! t.K ! n./ @ yXCXgXaXoX}.`.O., o.oXbXxXCXFX}.O.J.MXZXhXoXwXoX(.Y.rX~.3 <Xb.> x.L > t w.[ L [ @.g.K.R.L.K.K.K.a.",
"' ' ' ' ' ' ' ] ! t.! ` n.u @ &XlXdXhX1XW.6 6 1X>XwXwXlX.XrXJ.%.NXDXkXaXxX5XOXaX/.9.X.N <X*X$.8.=XJ @ H [ L _ f.E.W.R.L.L.L.K.I.",
";.;.;.;.@.] ] @.1.1.e.t.:.p K Z J ).ZX!., @.$Xr.P Y y X.Y V V *XY XXxXnXnXgX5XoX,X} 5 Y :X>X=X4 Q.yXj.@ 1 8.h.i.E.W.R.L.L.L.L.J.",
"1.' 1.@.@.@.@.@.r.f.e.y.l.y :.$X_ T T 4 4 Z T &X).MXZXZX . .AXlX(.O.} H.9XgXsX5X,X_., A <X_.>XI O.:XuXI.4 Z k.Q.I.K.L.L.L.L.J.J.",
"1.2.2.x.( f.Z T y 4 y u J L , b.iX!.> , 6.'.MXuXMXAXAX'.7.dXdXSXHXaX8Xo.O.+XxXoX>X1X, Y rX`.hXXXF O.MXZXeX> U E.Q.W.%.L.~.J.J.J.",
"( E.T +.( 5 V T #.$.h._ J A > , ( ;XA U lXwXOXdXbXCXwXU H.HXmXgXSXxXSXnX7XF | hXrX<XV A _.,XzX8X].| 9.rXZXeX, J g.W.J.L.W.J.J.J.",
"x.R f.Z > y E *XyXeXuXrX_.*XQ.+.B 3 , ..OX5XgXaXxXoX| H.nXmXqXmXdXSXxXgXGX9XS.D Q.eXH 4 _.hXfXgXSXY...6.eXPX<Xy +.E.K.K.L.J.L.J.",
"@.s.4 A &X*Xa.$.rXrX>XMX>XrXrX>X:X:XB B OX8X[.8XaXVXG 8XnXvXmXgXSXFXxXfX9XgXaX7.Z -X1 @ <XhX9XnXfXFXwX, U.<XuX8.V p.W.K.K.a.L.J.",
"x.R > !.=X<XI.4 A  .A 9...F.9.Y.R.BX%.6 U.hXoXaXVX^.B VXVXVXGXGXCXrXkXSXgX8XwX>X( ` > @ Q.kX9XvXxXxXFX(.1 6.k.h., #.W.T.K.K.W.a.",
"y._ V !.).a.5 U.O./.F./...D.F C I 3 A D , | jXjXjXD D.cXNXDX2XD. .9. XoXfXaX.XrX;X+ i < J kXgXgXnXzXhX7.6.1 Q.).> @.E.E.T.K.E.p.",
"1.' > $X!.U a.9.F.Y.hXxXwXxX,X].'.6.8.k.U 4 U `.lXy (.CXrX%.C +.!.3 A D ].dX>X*Xn.+ &.j , '.gXgXnXfXY wXZ U yXk.4 s.E.T.T.K.E.d.",
"y.2.V V U U J.>X{...hXxXaXaXaXoX(.eX_.&XiXb.> u 8. .0.'.V A %XBXI. .MXo.N F.=X_ @ v c ) 4 P zXxXCXF.F._.).4 ).y Z f.E.T.T.g.E.g.",
"_ $.R , %.1XJ.}..X| ,XxXoXfX8X|.(.>X=Xb.n.q.e + @ 1 y , 9.>X>X2X| D.DXMXQ.> y > x *.c Q L > U ZXBX#.*X*XJ R T , c.c.T.c.g.g.g.g.",
"2.d.i.5 A *X:X`.U.F.hXcXaXzXoXoXY.9.P t 8 7 l *.j u > Q.}.{.].G.| H.hXrX:XZ t k Q *.W ~ -.t 1 ] ;X_ -X-XZ 3 A @.c.c.K.g.g.g.K.g.",
"' ' r.T 5 #.*XI.D  XNXNXkX}.o.I C 6 5 H j x ~ ) k @ h.`.}..XS.o.| G.].}.1X$., ) Q ~ p p ^ L 4 3 4 5 !.2., 5 $.!.T.K.K.g.K.K.g.g.",
"3.;.1.x.Z 4 J 4 *XMX_. .P 5 5 N V A R [ :.n.t.u > 8.>X/..X}..XN H.OXY./.>Xj., L Q ! ` ! ! ( _ T V 3 5 4 R $X!.#.g.K.g.g.g.g.g.g.",
">.z.;.x.t.y u 1 , Z 4 y Z Z X.E %.i.f.y.l.b.' , #.rX,XkXhXkXY.I 8XsX|.{._.Q.5 u ! ' v.b.3.1.2.2.@.#.g.g.g.i.i.*Xg.K.K.g.g.a.a.a.",
"/ z.^ ` l.z.l.1.e.e.[ u.u.r.!.f.d.d.f.$X&X1.Z V rX.XcXNXkX/.D Y.xXfXaXoX`.Q.5 y 1.y.b.$Xc.d.c.g.!.!.c.g.!.!.g.d.K.K.g.g.a.a.p.p.",
"-.z.;.` >.t.t.:.` :.1.l.x.t.u.u.c.f.1.x.c.A J :XjXhXaXaXXXN U.rXxXfXfXaX,XJ., P f.c.c.d.c.!.!.T.$.E.E.i.i.K.K.g.K.K.g.g.a.p.p.p.",
";.` :.z.3.-.` ` K t.t.:.u.t.:.x.2.c.s.x.x.5 D MXhXzXzXG.D Y.lXFXxXfXxXzXkXD.> $.2.!.!.d.T.!.T.p.~.g.#.E.!.p.p.K.K.K.g.g.g.p.p.p.",
":.` ` :.:.` / K 1.1.1.e.e.e.t.y.s.y.s.x.c.> :XMX{.S.o.| I 9. .'.oXdXSXkXkXO.5 #.g.c.c.T.T.T.T.T.K.K.K.K.g.g.g.g.p.p.g.g.d.p.p.p.",
"( ' :.! S y ! t.1.1.1.1.e.e.e.r.y.c.y.' y.4 I.J.| S.^...A U.j.U.7.S.G.FXrX, A j.j.c.c.c.c.T.P.P.K.K.K.g.g.g.g.g.p.g.g.d.i.i.i.i.",
"` / u u S L ` 1.:.1.1.1.1.1.e.2.2.2.y.y.l.4 J 8.:X.X}.| 5 U.*X*X XY... X9.3 *X!.c.c.T.T.T.T.T.T.g.g.g.g.g.g.g.g.g.d.d.s.i.i.i.i.",
"/ t > t ` 3.;.! ;.:.:.1.1.1.1.2.@.1.3.v.v.u 1 @.:X_.`.9.P Q.*X).`.:X:XX., A i.A s.f.f.c.c.T.T.T.g.g.g.g.g.d.f.f.f.s.s.y.y.y.y.y.",
"@ < i ^ -.-.` -.-.;.;.;.:.1.1.1.@.f.1.` t.z.t y J r.Q.a.P ).-X!.*Xa.8.4 3 r.y.$X2.2.y.s.s.f.d.d.g.d.g.d.d.d.s.s.s.y.y.y.y.y.y.y.",
"@ q c <.*.~ *.>.-.-.;.;.;.:.:.1.@.2.1.' t.z.~ ^ y y 4 5 > Z T L 4 4 > L b.$X1.y.s.s.s.s.s.f.d.d.d.d.d.d.s.s.s.y.y.y.y.y.y.t.3.1.",
"l l n =.<.=.*.*.*.-.-.-.;.;.;.;.$._ ' t.z.*.,.N.z.` Z 1._ T u Z ( b.1.x.y.y.t.b.x.x.x.x.x.x.f.f.f.f.s.s.s.s.s.y.y.y.3.t.t.t.;.` ",
"m m m =.=.=.&.&.*.*.-.-.-.-.;.' $.$.' / >.>.N.c *.n.t.u.@.y.t.x.e.l.l.u.` b.t.t.t.t.y.y.s.s.s.f.s.s.s.s.s.s.y.y.y.y.3.3.3.:.` / "
};