/* XPM */
static char *_d5c9864f4cc4852b270a00677b3f061oUdukCSYGrIeJY35[] = {
/* columns rows colors chars-per-pixel */
"64 64 244 2 ",
"   c #040100",
".  c #0E0803",
"X  c #120700",
"o  c #130C01",
"O  c #1B0D02",
"+  c #160A0A",
"@  c #151203",
"#  c #1C1302",
"$  c #1C1709",
"%  c #1B1715",
"&  c #1A0F15",
"*  c #231902",
"=  c #2A1C04",
"-  c #221B0C",
";  c #2A1D0B",
":  c #211405",
">  c #231D13",
",  c #231C1B",
"<  c #241818",
"1  c #1F2115",
"2  c #2B250A",
"3  c #372B0C",
"4  c #252214",
"5  c #2A2316",
"6  c #24231B",
"7  c #2B231C",
"8  c #2B2A19",
"9  c #322614",
"0  c #362A13",
"q  c #342B1B",
"w  c #3A2B19",
"e  c #3D321B",
"r  c #3A3216",
"t  c #2D3119",
"y  c #271E21",
"u  c #2A2523",
"i  c #2C2C25",
"p  c #2C2728",
"a  c #332C22",
"s  c #352C29",
"d  c #343224",
"f  c #3D3423",
"g  c #3B352B",
"h  c #3E3B2C",
"j  c #363627",
"k  c #3B3834",
"l  c #332C34",
"z  c #43331B",
"x  c #44391C",
"c  c #463919",
"v  c #422E1C",
"b  c #453C24",
"n  c #4B3D24",
"m  c #433D2C",
"M  c #4A3D2B",
"N  c #423525",
"B  c #443C37",
"V  c #513D2D",
"C  c #4D4224",
"Z  c #4C432C",
"A  c #4A462A",
"S  c #504425",
"D  c #52452B",
"F  c #554A2B",
"G  c #5A4D2D",
"H  c #564B24",
"J  c #454133",
"K  c #4B4334",
"L  c #45413A",
"P  c #4C453B",
"I  c #4D4B3C",
"U  c #4F4C34",
"Y  c #524532",
"T  c #544A33",
"R  c #5B4D35",
"E  c #534B3C",
"W  c #5B4C3B",
"Q  c #53443C",
"!  c #5D5334",
"~  c #5B533C",
"^  c #575539",
"/  c #55522D",
"(  c #64553B",
")  c #6B5C3D",
"_  c #645738",
"`  c #69603C",
"'  c #73663C",
"]  c #473840",
"[  c #4D4944",
"{  c #554B48",
"}  c #5C5344",
"|  c #55534B",
" . c #5A5748",
".. c #595953",
"X. c #5D4F52",
"o. c #625643",
"O. c #645C43",
"+. c #6B5C44",
"@. c #645B4B",
"#. c #695A49",
"$. c #625C54",
"%. c #645D5B",
"&. c #6A5957",
"*. c #6F4E55",
"=. c #6C6344",
"-. c #6C644B",
";. c #67634A",
":. c #746A46",
">. c #796D45",
",. c #72644B",
"<. c #746A4C",
"1. c #7B6D4C",
"2. c #706544",
"3. c #7D724C",
"4. c #79734B",
"5. c #6C6354",
"6. c #6B635B",
"7. c #686757",
"8. c #756B53",
"9. c #7C6D54",
"0. c #756C5B",
"q. c #7B6E5A",
"w. c #756654",
"e. c #7D7354",
"r. c #7D735B",
"t. c #7E7A5B",
"y. c #777358",
"u. c #785A62",
"i. c #6A6663",
"p. c #766969",
"a. c #7C7263",
"s. c #797668",
"d. c #7D7974",
"f. c #7A6E70",
"g. c #806E4D",
"h. c #82754D",
"j. c #857849",
"k. c #826F53",
"l. c #827553",
"z. c #847A54",
"x. c #8A7C55",
"c. c #83755B",
"v. c #89765B",
"b. c #857A5B",
"n. c #8B7C5B",
"m. c #8A7656",
"M. c #907F5C",
"N. c #845563",
"B. c #847662",
"V. c #847A63",
"C. c #8B7C64",
"Z. c #847C6B",
"A. c #8B7B69",
"S. c #886A74",
"D. c #867678",
"F. c #95757F",
"G. c #8D6F6E",
"H. c #7D8275",
"J. c #8C815D",
"K. c #8A8158",
"L. c #93835D",
"P. c #95895E",
"I. c #8C8364",
"U. c #8C826C",
"Y. c #888667",
"T. c #938463",
"R. c #948A64",
"E. c #9A8B65",
"W. c #93856B",
"Q. c #958C6A",
"!. c #9B8D6C",
"~. c #9E926C",
"^. c #959165",
"/. c #888577",
"(. c #958A75",
"). c #9D927A",
"_. c #9C9474",
"`. c #A2946C",
"'. c #A39776",
"]. c #A8A07C",
"[. c #997C84",
"{. c #A57A88",
"}. c #7F8480",
"|. c #8A8984",
" X c #968B87",
".X c #999489",
"XX c #999896",
"oX c #958D96",
"OX c #A79A99",
"+X c #AB9491",
"@X c #9EA094",
"#X c #ABA489",
"$X c #A8A69A",
"%X c #B3AD9A",
"&X c #BAB39B",
"*X c #B499A1",
"=X c #AAA6A4",
"-X c #B7A8A6",
";X c #B9B5A8",
":X c #BAB7B3",
">X c #ADB3AA",
",X c #C6BEA7",
"<X c #C4ADB3",
"1X c #C5B8B6",
"2X c #C1A4AD",
"3X c #C49DA8",
"4X c #BFC1B3",
"5X c #C8C5B7",
"6X c #D5CCB9",
"7X c #D5D1BB",
"8X c #C7C3A9",
"9X c #C7B8C0",
"0X c #CCC6C4",
"qX c #CACAC5",
"wX c #D3CAC8",
"eX c #DAD6C8",
"rX c #DBD7D5",
"tX c #D3D1CD",
"yX c #E4DDCA",
"uX c #E5D9D8",
"iX c #E0CCD0",
"pX c #EAE6CD",
"aX c #E9E5D9",
"sX c #F2EEDF",
"dX c #EBDDE3",
"fX c #F1DEE0",
"gX c #EBE4E5",
"hX c #EAEBE5",
"jX c #F4EBE9",
"kX c #ECF4EC",
"lX c #F4F3EB",
"zX c #FDFBEF",
"xX c #F7F4E7",
"cX c #F7EEF4",
"vX c #EEF3F1",
"bX c #F5F5F3",
"nX c #FBF5F5",
"mX c #F5FBF5",
"MX c #FCFCF6",
"NX c #FEF6FC",
"BX c #F6FEFC",
"VX c #FEFEFE",
"CX c #F7F1F9",
"ZX c #DAE2D8",
/* pixels */
"VXVXVXVXVXVXVXVXVXVXVXVXVXVXVXVXVXVXVXVXVXmXmXVXVXVXVXVXVXVXBXBXVXVXVXVXMXiX+X+Xu.<XNXNXVXVXBXVXVXVXVXVXVXVXVXVXVXVXVXVXVXVXVXVX",
"VXVXVXVXVXVXVXVXVXVXVXVXVXVXVXVXVXVXVXVXVXVXmXBXvXmXVXVXVXVXVXVXVXVXVXVXMX-X-X[.[.*.dXNXVXVXBXBXVXVXVXVXVXVXVXVXVXVXVXVXVXVXVXVX",
"VXVXVXBXBXVXVXVXVXVXVXVXVXVXVXVXVXVXVXVXVXVXVXVXVXVXVXVXVXVXVXVXVXVXVXVXVXOXu.p.u. XcXVXVXVXBXBXVXVXVXVXVXVXVXVXVXVXVXVXVXVXVXVX",
"VXVXVXBXBXVXVXVXVXVXVXVXVXVXVXVXVXVXVXVXVXVXjXrX:X:X=X$X$X:XwXrXVXVXVXVXjXD.p.1XuXNXNXNXVXVXBXBXVXVXVXVXVXVXVXVXVXVXVXVXVXVXVXVX",
"VXVXVXVXMXVXVXVXVXVXVXVXVXnXMXVXVXVXrX X%.[ [ | $.;.5.6. .7.E h } &.D.1X.X6.wXnXnXVXNXnXVXVXVXVXVXVXVXVXVXVXVXVXVXVXVXVXVXVXVXVX",
"VXVXdXuXuXnXVXmXVXVXVXVXbXMXMXrX/.L k %. X1XwX5X&X%X#X)..X0.0.Z.A.#.Y 9 } P -XMXVXVXVXVXVXVXVXVXVXVXVXVXVXVXVXVXVXVXVXVXVXVXVXVX",
"VX=XS.*X3X<XVXmXVXVXVXVXVXrX%.g 7.;X7XeX&X(.V.8.8.<.e.! # C b.b.c.v.C.( ^ ^ 2 J $XVXnXnXVXVXVXVXVXVXVXVXVXVXVXVXVXVXVXVXVXVXVXVX",
"VXp.S.G.S.[.wXVXVXVXVXVXi., s.eXpX,XW.c.,.c.c.c.b.<.8.z F 1.l.l.n.T._ c 4.Y.t. .8 L wXMXVXVXVXVXVXVXVXVXVXVXVXVXVXVXVXVXVXVXVXVX",
"MX0Xf.f.f.i.p.=XCXVX0X6 [ 5XpX&XQ.1.1.3.m.l.h.3.n.b.M ; c.l.h.h.m.2.3 G 3.l.l.e.U.K $ f.VXNXVXVXVXVXVXVXVXVXVXVXVXVXVXVXVXVXVXVX",
"VXVXMXgXnXgXOX%.oXXX, /.sXeX_.e.>.' x.P.`.E.x.h.e.r.a o.c.l.h.h.L.H c l.3.l.m.n.9.V.{ o $.MXMXMXVXVXVXVXVXVXVXVXVXVXVXVXVXVXVXVX",
"VXMXVXVXMXVXMXrXf.u %.uX7X(.8.n.z.h.R.`.`.E.x.l.` R ; #.c.l.l.h.l.3.4.1.4.h.x.n.C.q.w.E $ 6.MXbXVXVXVXVXVXVXVXVXVXVXVXVXVXVXVXVX",
"MXVXVXMXVXVXVXuX&  X|.} @.r.c.c.R.x.E.~.m.l.h.g.l.n.N w.c.l.c.c.I.I.b.e.I.b.c.e.9.9.B.E P . d.MXVXVXVXVXVXVXVXVXVXVXVXVXVXVXVXVX",
"MXVXVXVXMXVXVX, ..jXyXr.b b -.<.e.K.J.h.m.m.l.g.b.+.z n z.b.B.0.B 7 7 > 7 { 6.a.8.l.V.w.K P @ qXVXVXVXVXVXVXVXVXVXVXVXVXVXVXVXVX",
"VXVXVXVXMXVXXX+ eXeX#XB.8.T c.b.e.z.z.n.~.T.l.g.n.1.,.,.b.I.} + + & y % & , % $.V.<.b.r.E I q [ MXVXVXVXVXVXVXVXVXVXVXVXVXVXVXVX",
"VXVXVXVXMXbXp s.aX8X8.t.r.V.9.e.t.b.R.'.'.n.l.l.x.l.I.c.z.+.O < s y y B k , % o ,.l.c.c.~ K I % qXVXVXVXVXVXVXVXVXVXVXVXVXVXVXVX",
"VXVXVXMXVXrX+ :XpX'.V.0.M 9 ; ; 9 Z c.).W.9.1.m.l.1.c.e.J.b X a p { { ..% , u @ e l.<.r.~ K I > d.NXVXMXVXVXVXVXVXVXVXVXVXVXVXVX",
"VXVXVXMXVX=X% rX7XY.a.< + y 5 u p < < 6.V.9.e.z.J.z.l.e.b.x # d > k %...[ d 6 @ 2 z.e.<.M J I d 6.VXVXVXVXVXVXVXVXVXVXVXVXVXVXVX",
"VXVXVXMXVX|.p aX5Xs.a . ] { s { l p & - a.9.l.l.h.h.h.:.b.O.  - a P d 4 d j $   b b.r.;.A J I d | NXVXVXVXVXVXVXVXVXVXVXVXVXVXVX",
"VXVXVXMXVX|.u hX,Xy.# - , B p.i.p y , O q.c.c.h.>.x.n.e.e.V.E o o 5 > 5 - 5 o $ ;.t.b.O.m J I s { NXVXVXVXVXVXVXVXVXVXVXVXVXVXVX",
"VXVXVXMXbX:X+ aX8Xr.; # a B { [ B 7 7 ; q.r.l.h.>.E.~.J.e.U.U.-.f O X X o $ A ^ r.t.b.~ m J I s i.VXVXVXVXVXVXVXVXVXVXVXVXVXVXVX",
"VXVXVXMXVXbX& ;X7XY.-.* # g a > a > # Y B.e.l.l.3.h.`.~.c.c.9.V.V.c.#.Y 9 T T 8.<.<.t.} f P J 6 OXVXVXVXVXVXVXVXVXVXVXVXVXVXVXVX",
"VXVXVXMXVXVX[ %.pXV.Y.<.2 # > 5 o 4 T r.V.c.l.z.m.3.l.l.e.l.b.r.q.e.v.r.c.b.e.z.e.z.-.e K K B 6 gXVXVXVXVXVXVXVXVXVXVXVXVXVXVXVX",
"VXVXVXMXMXVXtX@ 7X#X4.J.e.T P K U ;.t.z.e.c.l.1.z.1.:.n.b.v.c.C.C.9.9.C.b.l.b.c.=.e.! b Z } > Z.VXbXVXVXVXVXVXVXVXVXVXVXVXVXVXVX",
"VXVXVXMXVXMXVX..m yX<.t.e.9.5.5.r.y.V.y.e.c.9.) l.) x _ +.+.z 9.c._ ( 1.S F e.z.z.:.r x K g g aXbXVXVXVXVXVXVXVXVXVXVXVXVXVXVXVX",
"VXVXVXMXMXMXMXMXu a.;X-.c.b.C.W.r.V.W.c.T #.W = z ( 0 F ( n 0 +.( z x =.) ! b.e.=.3 3 Z m $ wXjXMXVXVXMXVXVXVXVXVXVXVXVXVXVXVXVX",
"VXVXVXMXMXMXMXMXjX% p.#XB.e.z.F B.b T #.9 e ,.+.c.V.l.v.b.b.8.C.n.c.e.b.e.z.e.,.z * Z K 7 ;XjXMXVXVXVXVXVXVXVXVXVXVXVXVXVXVXVXVX",
"VXVXVXMXVXVXVXVXVXaXB E U.C.c.z G ! C ,.b.,.T.c.l.3.z.l.3.3.e.e.e.z.b.e.e.e.=.C X Z K a :XVXNXVXgXwX<XiXMXVXVXNXVXVXVXVXVXVXVXVX",
"VXVXVXMXVXVXVXVXMXVXMX7.5 ~ B.I.b.T.l.z.l.l.l.h.3.z.3.h.x.:.l.z.z.3.e.z.=.D D * f m [ rXnXNXNXdX=XOX+X&.0XbXNXNXVXVXVXVXVXVXVXVX",
"VXMXVXVXVXjXgXMXmXVXVXMX1XK 5 @.l.T.l.n.z.l.h.h.4.>.4.3.l.l.l.l.n.3.) ! C R b * # q.VXjXNXNXNX9XF.u.S.*.=XVXNXVXVXVXVXVXVXVXVXVX",
"VXMXMXVX*X X*X-XaXmXmXlXVXVX0X&.w D 1.b.T.c.e.e.z.l.l.h.b.l.<.=.S C C F D r 0 b # f  XuXMXnXwXD.S.[.F.-XMXVXVXVXVXVXVXVXVXVXVXVX",
"VXVXnXiX{ {.{.*X:XMXmXVXVXNX1Xp.N T 0 z Y +.8.+.,.,.=.) _ ! D C C C x r A =.z.c.e.=.e 9 &..Xp.1XVXVXVXVXVXVXVXVXVXVXVXVXVXVXVXVX",
"MXMXNXjXF.*.N.*./.hXMXeXD.| { a.(.U.q.,.#.9 O w 0 e z z D D D C C C D D <.z.z.=.e.z.I.8.W o.N ..>XkXVXBXmXVXVXVXVXVXVXVXVXVXVXVX",
"VXNXNXVXNXiXuXfX.X/.0.A r.#X#XJ.z.>.c.l.C.w.W o.F D D D S S S S _ ,.e.e.1.c.z.e.e.b.<.Z b 8.a.} 8 h /.qXMXMXVXVXVXVXNXNXVXVXVXVX",
"VXNXVXVXVXNXNX XJ 5.5.U.].~.R.P.x.`.T.b.n..XA.B.c.9.9.c.c.c.l.l.e.e.l.c.b.l.z.1.e.z.e.<.<.e.B.V.Z.5.m d U $XxXMXMXNXVXVXVXVXVXVX",
"VXMXMXMXgXD.B 6..X;XU.T _ K.`.P.~.R.b.l.r C.b.V.9.b.b.l.l.c.c.c.c.l.z.z.! 3.l.z.z.z.c.b.e.Q._.Q.C.Q._.(.^ r r Z.uXbXVXMXVXVXVXVX",
"lXVXtXf.L f.;X.X).(.U.O.S h.`.E.L.l.l.F x Q.e.v.9.G G e.b.b.b.b.z.z.z.z.:.c :.:.b.c.e.e.c.I.Q.R.'.Q.Q.Q.'.R._ x 5 f.wXVXVXVXVXVX",
"zX Xd s.$X/.s.a.B.r.V.W.~.R.x.h.e.1.n.= !.x.x.l.x.+._ b.c.c.c.c.l.3.3.3.n.c 3 G x ) 1.l.z.z.z.L.E.!.E.E.P.P.P.R.q.B 5 [ 5XMXMXxX",
"%X@ ;X/.8 h } o.U.B.r.z.z.h.h.l.e.W.D c '.l.!.l.) c F +.c.c.c.l.h.h.l.l.n.l.c c 3 2 S ) z.z.l.l.n.L.L.L.L.L.L.I.c.(.a.} a P 1XzX",
"5 U.#X5.8.5.9 f o.q.B.e.z.z.z.x.8.~ X T.!.E.T.l.1.z ,.9.c.c.c.l.3.l.n.J.1.3.l._ ) F = r ! =.l.l.x.n.m.m.m.v.v.b.9.0.b Z 8.Y # eX",
"# ).y.8.t.r.U.~ * o.U.b.b.e.2.` f O 2 #XJ.T.E.n.l.z b.b.c.l.l.l.3.l.J.R.l.l.n.b.x.1.S O ; b ( r.n.v.k.k.k.k.k.c.R * T T 8.).e Y ",
"* 8.8.8.c.t.t.t.0.e ~ r.@.} b - a.} <._.h.`.L.1.) z n.c.n.z.l.3.3.x.Q.'.l.l.l.h.j.' G ; @.Z.: E -.v.C.A.8.C.,.# T +.v.v.c.c.9.o ",
"x C C.9.q.q.q.q.U.q $ E E 7 q OXzXe '.e.z.E.n.l.n = ( b.e.l.z.n.l.J.!.~.l.l.l.h.j.>.C N - nX;Xa 5 M #.A.V.q.Y M r.B.C.9.V.9.c.O ",
"6X; +.V.r.q.a.a.} I 4 $ a  .aXxXOXm &X3.K.E.l.v.+.z I.<.e.l.z.n.l.R.!.T.l.l.l.h.x.j.G D o  XMXaX0.q N ~ o.q q U.V.r.8.9.r.B.W * ",
"MX,Xe q K K K K h g 4 a $XVXVXMX| 0.&X2.L.L.l.v.M = +.1.n.z.l.3.l.E.!.n.l.l.l.l.x.h.:.D # m xXzXMX%Xh 5 q $ m @.0.a.V.Z.V.B.: #X",
"xXMXxX$X7.L g L [ { .XgXVXVXvXVX7 5X&X` h.h.l.v.,.e q.c.c.l.l.h.l.l.l.l.l.l.l.l.h.h.3.=.2   tXmXmXVXlXd.% @ j I { $.7.@.P - /.MX",
"MXVXzXxXVXVXbXlXbXmXNXVXNXVXVX9Xu eXI.>.h.h.m.v.q.v ,.8.c.l.l.h.l.l.l.l.l.l.l.l.h.h.l.e.! o s.VXmXmXVXkX>X..i 6 i 1 4 d  .:XMXzX",
"VXVXVXVXVXVXVXNXVXVXVXNXNXNXcXp OX$X8.z.h.h.m.v.C.V z R l.l.l.h.l.l.l.c.l.l.l.l.l.h.h.l.8.m . 0XVXBXvXmXmXkXhXqXqX5XeXhXMXVXlXMX",
"MXVXMXnXVXgXjXVXvXvXBXVXVXVXl |.%X,.e.3.j.h.h.m.B.,.w C.c.l.l.c.c.c.c.c.l.l.l.l.l.l.h.l.e.;.> p bXBXkXVXVXkX0X1X>XtXmXVXhXMXVXVX",
"mXVXVXnX*XOX2X1XVXVXVXVXVXL 0.,Xy.e.3.h.j.j.j.l.9.A.R R +.-.,.8.r.t.e.c.c.x.n.1.l.l.h.l.e.b.( X p.NXVXkXtX X{.F.+XX.rXVXVXVXVXVX",
"VXVXnXdXX.F.S.p.XXqXBXVX6. .6X=.3.3.3.3.j.j.j.z.c.V.#.W D D Y Y N W V.e.l.c.k.l.l.l.h.l.l.c.x.n X =X=X}.|.f.*.N.u.D.MXVXVXVXVXVX",
"VXVXVXVX<XD.F.OX=XH.$Xi.J 6Xr.z.3.3.3.3.h.h.h.c.V.W ; 9 9 w f m d q o (.C.c.m.k.l.l.l.l.1.b._ D Q , :XZXkXVXiX<X9XcXVXNXVXVXVXVX",
"VXVXVXVXMXNXNXVXMXVX7.I @XU 8.z.3.3.3.3.l.c.c.r.0.-X XZ.7.@.{ P J I 5 ~ 6XV.W.n.l.l.l.l.1.h.) ( V O { MXkXmXVXNXNXNXNXVXVXVXVXVX",
"VXVXVXVXVXcXVXMXVX/.h 7XB.=.V.e.>.>.>.3.b.U.t.9 E MXVXzXMXMXVXVXVXMXxX> .X,XV.).T.g.n.n.l.3.l.n.w.W   H.MXVXVXVXVXVXVXVXVXVXVXVX",
"VXVXVXVXbXVXMXVX.Xj 5X(.e.n.c.9.z.3.x.!.).V.q > uXVXlXVXVXVXVXVXVXVXVX:Xo yX(.(.!.M.n.l.1.l.x.l.C.9.b X :XVXVXVXVXVXVXNXNXNXNXVX",
"VXVXVXVXVXMXMXXXi ;XV.<.z.E.e.e.x.K.R._.8.K X 5XVXMXMXVXVXVXVXVXVXVXmXMX[ @.yXr.!.!.n.m.l.T.E.L.l.m.( w - gXbXNXBXBXVXNXNXNXVXVX",
"VXVXVXVXVXVXXXi ;XZ.r.b.E.n.l.l.z.^.Q.B.E X OXVXVXVXVXVXVXVXVXVXmXVXbXVXhXo :X&XC.`.T.T.m.l.n.E.n.1.1.R O Q VXMXBXBXVXNXNXNXVXVX",
"VXVXVXVXVX$Xi ;XV.9.e.n.m.1.l.b.^.Y.t.} - d.VXNXVXVXVXVXVXVXVXVXVXVXVXVXMX|.6 aXW.C.Q.`.l.h.3.3.z.1.C.+.K o p.VXVXVXVXVXVXVXVXVX",
"VXVXVXVX=Xi |.Z.e.n.l.z.l.l.3.l.z.t.^ $ P VXVXNXVXVXVXVXVXVXVXVXVXVXVXVXMXVXu d.yXV.e.b.3.3.l.l.l.e.e.r.Z h   @XMXVXVXVXVXVXVXVX",
"VXVXVXVX[ d.7.d r >.3.h.3.z.z.3.t.;.8 4 jXMXVXVXVXVXVXVXVXVXVXVXVXVXVXVXVXnX0X  6X6X8.I.c.z.e.3.c.b.r.N m 4 6 6 MXVXVXVXVXVXVXVX",
"VXVXVXVXk |.|. .! H 2 S 4.z.z.4.O.q @ eXVXnXVXNXVXVXVXVXVXVXVXVXVXVXVXVXVXnXVX/.4 aX%X-.b.I.e.,.2 F n w 4 I h 6 MXMXVXVXVXVXVXVX",
"VXVXVXVX|.k 5Xd.y.4.` / H C / ;.4 $ wXVXVXVXVXVXVXVXVXVXVXVXVXVXVXVXVXVXVXVXVXVX{ h xX(.2 ^ F A N +.0.5.B | % L VXVXVXVXVXVXVXVX",
"VXVXVXVXMX..| .XU.Y.Y.Y.Y.;.f @ s uXVXnXVXVXVXVXVXVXVXVXVXVXVXVXVXVXVXVXVXVXVXVXVXg P 5X7.U t.t.U.V.&.P B p   :XVXVXVXVXVXVXVXVX",
"VXVXVXVXVXVX$X7.7.} h m I J h /.lXVXVXVXVXVXVXVXVXVXVXVXVXVXVXVXVXVXVXVXVXVXVXVXMXVX .I 0. .y.s.q.} N a , p :XVXVXVXVXVXVXVXVXVX",
"VXVXVXVXVXVXlXMXrX5X$X%X>X5XzXMXVXNXNXNXNXVXVXVXVXVXVXVXVXVXVXVXVXVXVXVXVXVXVXVXMXMXVX4X7.J t 5 ; : 9 [ OXjXNXMXVXVXVXVXVXVXVXVX"
};