/* XPM */
static char *_238533e9c58409aebd95e4f3a92743ekkuDETAQPFmGmZIQ[] = {
/* columns rows colors chars-per-pixel */
"64 64 256 2 ",
"   c #030101",
".  c #0A0301",
"X  c #0D0903",
"o  c #040409",
"O  c #0D0B0A",
"+  c #090509",
"@  c #130200",
"#  c #1A0100",
"$  c #130C03",
"%  c #1B0D01",
"&  c #120D0C",
"*  c #1C090C",
"=  c #141102",
"-  c #1B1301",
";  c #15110B",
":  c #1B140B",
">  c #1D1907",
",  c #160F12",
"<  c #0E1216",
"1  c #141313",
"2  c #1C1512",
"3  c #1C1A14",
"4  c #1B1B19",
"5  c #0A0D13",
"6  c #220400",
"7  c #240B00",
"8  c #2A0B01",
"9  c #2A0300",
"0  c #380B02",
"q  c #231501",
"w  c #2A1401",
"e  c #241B01",
"r  c #2B1C01",
"t  c #241B0C",
"y  c #28170B",
"u  c #361806",
"i  c #221D14",
"p  c #261C19",
"a  c #391B15",
"s  c #2C2201",
"d  c #292508",
"f  c #332304",
"g  c #34220C",
"h  c #342B0D",
"j  c #392909",
"k  c #3C320D",
"l  c #3B3205",
"z  c #26221B",
"x  c #2B231D",
"c  c #2B2616",
"v  c #3B2613",
"b  c #322C14",
"n  c #3D2913",
"m  c #382919",
"M  c #3A3418",
"N  c #2A2321",
"B  c #372B24",
"V  c #3B3429",
"C  c #3A3836",
"Z  c #481704",
"A  c #551904",
"S  c #48180E",
"D  c #681B00",
"F  c #42240D",
"G  c #472907",
"H  c #5A270C",
"J  c #432C14",
"K  c #422C1B",
"L  c #482915",
"P  c #572917",
"I  c #433413",
"U  c #44331B",
"Y  c #443B1C",
"T  c #4B3719",
"R  c #57381A",
"E  c #4A360D",
"W  c #682605",
"Q  c #762B07",
"!  c #642712",
"~  c #732D16",
"^  c #6A351B",
"/  c #793617",
"(  c #7C310A",
")  c #432D22",
"_  c #463926",
"`  c #543D27",
"'  c #443C35",
"]  c #5C2923",
"[  c #763A22",
"{  c #6D3726",
"}  c #55431B",
"|  c #4A401D",
" . c #4A4527",
".. c #54442C",
"X. c #534A2A",
"o. c #5D4C2C",
"O. c #574527",
"+. c #5C522A",
"@. c #4C4536",
"#. c #5A4532",
"$. c #554937",
"%. c #5C5234",
"&. c #5A5438",
"*. c #63492A",
"=. c #66562E",
"-. c #634D35",
";. c #664A37",
":. c #645C3C",
">. c #685838",
",. c #745A3B",
"<. c #774A29",
"1. c #6E633B",
"2. c #77653C",
"3. c #61401B",
"4. c #594E42",
"5. c #5A5645",
"6. c #5B5756",
"7. c #494945",
"8. c #675A46",
"9. c #725C43",
"0. c #755A49",
"q. c #655C55",
"w. c #705F55",
"e. c #6A6448",
"r. c #7B6A4B",
"t. c #766647",
"y. c #7E734B",
"u. c #6C6555",
"i. c #776A56",
"p. c #797459",
"a. c #7A7766",
"s. c #76716C",
"d. c #87370A",
"f. c #953D09",
"g. c #853914",
"h. c #8D390D",
"j. c #813E2C",
"k. c #A23B00",
"l. c #8A411A",
"z. c #964417",
"x. c #954713",
"c. c #A44B19",
"v. c #AE5018",
"b. c #884624",
"n. c #964923",
"m. c #9A532B",
"M. c #9A5834",
"N. c #8B4F31",
"B. c #A85727",
"V. c #B55C26",
"C. c #A7552D",
"Z. c #976739",
"A. c #AB6437",
"S. c #BB6735",
"D. c #B7672C",
"F. c #C7662B",
"G. c #C67338",
"H. c #D37234",
"J. c #D36E2B",
"K. c #836B49",
"L. c #85774B",
"P. c #846D56",
"I. c #8C7D5C",
"U. c #867657",
"Y. c #947A5B",
"T. c #9C7148",
"R. c #B5764C",
"E. c #B37C51",
"W. c #A96A43",
"Q. c #877966",
"!. c #937D65",
"~. c #827C76",
"^. c #925C4A",
"/. c #C77645",
"(. c #CC7B4C",
"). c #E57D40",
"_. c #D2843C",
"`. c #8F8356",
"'. c #BB8251",
"]. c #8B8566",
"[. c #938363",
"{. c #948B6C",
"}. c #998769",
"|. c #9A9169",
" X c #8B8577",
".X c #998975",
"XX c #9C9578",
"oX c #8F906D",
"OX c #A18B6A",
"+X c #A3946C",
"@X c #A28D75",
"#X c #AA9C74",
"$X c #A5947D",
"%X c #AB9C7B",
"&X c #A69776",
"*X c #B29B7B",
"=X c #B5A67C",
"-X c #ACA17D",
";X c #CE8B55",
":X c #E8924C",
">X c #CD9468",
",X c #EB9962",
"<X c #D9A679",
"1X c #CEAB74",
"2X c #EDAE73",
"3X c #F0A35D",
"4X c #FFC17C",
"5X c #968C82",
"6X c #9C9785",
"7X c #949390",
"8X c #A69985",
"9X c #B39D86",
"0X c #A79E96",
"qX c #ABA586",
"wX c #B3A684",
"eX c #BCAC8C",
"rX c #B7A787",
"tX c #B3AB97",
"yX c #BBB39A",
"uX c #B6AD92",
"iX c #AAA9A7",
"pX c #B9B3A8",
"aX c #B9B5B2",
"sX c #C5A988",
"dX c #C5B48E",
"fX c #C3B493",
"gX c #C9B898",
"hX c #D3BA9B",
"jX c #D0AC8B",
"kX c #F4B885",
"lX c #C9BAA4",
"zX c #CABCAD",
"xX c #D2C29D",
"cX c #CEC395",
"vX c #FDC490",
"bX c #CDC3A8",
"nX c #D7C9A8",
"mX c #CBC5B9",
"MX c #D7C8B4",
"NX c #D9D2B9",
"BX c #E3D3AE",
"VX c #E4D6BA",
"CX c #E9CEB0",
"ZX c #F2E1BE",
"AX c #D3CFCB",
"SX c #EADBCF",
"DX c #EAE3C7",
"FX c #F1E6D2",
"GX c #EAE9E8",
"HX c #F7F5EC",
"JX c #FBF6F5",
"KX c #FCFBF5",
"LX c #FEFEFE",
"PX c #F6F7F8",
"IX c #F3ECEC",
"UX c #E1E0E0",
/* pixels */
"LXLXLXLXLXLXLXLXLXLXLXLXLXLXLXC : 6 S P H ! ! W W h.h.c.F.f.k.F.x.B.B.v._.2X'.jX].6XKXHXLXLXIXPXLXLXKXKXLXLXLXLXLXLXLXLXLXLXLXLX",
"LXLXLXLXLXLXLXLXLXLXLXLXLXLXGXN 2 # u S A ~ ! W ( d.h.c.V.c.v.v.v.V.D.V.G.2X>XsXnXu.6XKXKXPXLXLXLXLXKXLXLXLXLXLXLXLXLXLXLXLXLXLX",
"LXLXLXLXLXLXLXLXLXLXLXLXLXLXGX; & @ u S A [ W D l.d.z.z.B.v.v.v.V.J.H.H._.2X<XOXXXDXtXs.aXIXLXJXLXLXLXLXLXLXLXLXLXLXLXLXLXLXLXLX",
"LXLXLXLXLXLXLXLXLXLXLXLXLXLXGX;   . a ] A j.W D l.z.B.z.B.c.c.V.F.H.).H.:X2X<XN.e..XmXmX.X8.tXKXKXLXLXLXLXLXLXLXLXLXLXLXLXLXLXLX",
"LXLXLXLXLXLXLXLXLXLXLXLXLXLXLXC   . 8 P A ~ Q W d.z.d.z.n.z.C./.;X,X2XG._.4X<XR v 8..XlXFXlXp. XKXKXLXLXLXLXLXLXLXLXLXLXLXLXLXLX",
"LXLXLXLXLXLXLXLXLXLXLXLXLXLXLX7.  . 6 S ! ~ Q g.d.h.d.l.m.l.l.R.R.A.(.z.:X4X<XH w v #.i.$XfXFXQ.5XLXLXLXLXLXLXLXLXLXLXLXLXLXLXLX",
"LXLXLXLXLXLXLXLXLXLXLXLXLXLXLXs.    @ Z ! ~ g.n.d.h.d.g.n./ M.H # 9 ^ [ ,XkX>XH g y u U r.OXeXfXs.UXLXKXLXLXLXLXLXLXLXLXLXLXLXLX",
"LXLXLXLXLXLXLXLXLXLXLXLXLXLXKX5X    @ 0 P j.N.n.Q d.( g.b.<.{ @ . # 8 ^ 2XkX>XH F K g 7 ` }.}.hXpX0XKXPXLXLXLXLXLXLXLXLXLXLXLXLX",
"LXLXLXLXLXLXLXLXLXLXLXLXPXKXNXe.X   + * a ] [ m.f.d.h.n.g.<.u # @   @ *.<XvX<XR F n v v w >.!.}.MX~.UXLXLXLXPXLXLXLXLXLXLXLXLXLX",
"LXLXLXLXLXLXLXLXLXLXLXLXKXUXa.yX$   + + p # 0 N.z.d.d.l.( [ y . +   . R <XvX<X^ F v v v u g ..}.lX6X5.JXLXPXLXLXLXLXLXLXLXLXLXLX",
"LXLXLXLXLXLXLXLXLXLXLXLXHXa.bXqX:       + . 6 H n.f.d.g.( ^ 8 . . . . F <XkX<XR F n n n g 7 v P.wXMX@.q.IXLXLXPXLXLXLXLXLXLXLXLX",
"LXLXLXLXLXLXLXLXLXLXLXKX X0XtX5.>           @ u m.f.d.g.Q ^ 8     . . u >XkX>XG F n n n g U u -.&XgX$X&.q.AXLXLXLXLXLXLXLXLXLXLX",
"LXLXLXLXLXLXLXLXLXLXKX0Xi.yXt._ b           . 8 A.c.d.l.g.^ y   + . @ 8 '.kXjXZ w g J g v v n n P.eXlX8.XX4.0XLXKXPXKXLXLXLXLXLX",
"LXLXLXLXLXLXLXLXLXKXKXu.8X!.J n M             8 m.x.d.g.b.H a .     @ F E.kXjXu # w g J n n n v ;.rXhX,.r.lX8.a.IXLXLXLXLXLXLXLX",
"LXLXLXLXLXLXLXLXLXKXmX XqX-.L ` ...           8 n.x.( Q m.A a 2 . . % F E.2X<Xu @ @ w v n n n n ) @X!.*X2.[.gXi.a.KXLXKXLXLXLXLX",
"LXLXLXLXLXLXLXLXLXLXtX$X[.J F ,.-.$         . 8 l.h.Q D b./ # ) y B L Z >X2X>XH 6 @ @ w n n n n n 8.r.dX=Xy.=XbXi.pXLXKXLXLXLXLX",
"LXLXLXLXLXLXLXLXLXJX}.U.8.v E =.I $   & & . # S ~ g.W D l.m.0 # u u H n.3X:X>X3.8 8 6 # u K ) ) u ;.P.eXdX|.=XeXtX~.HXJXLXLXLXLX",
"LXLXLXLXLXLXLXLXLXAXi.9.#.g } *.r @ $ 2 p * a Z ~ g.W D f.n.[ P Z ^ A.S.:X:X'.<.u ) ) v w y v K ) J Q.*X|.dX#XrX{.Q.AXKXLXLXLXPX",
"LXLXLXLXLXLXLXLXJX0X!.r.) K ,.*.r $ . . p B 9 Z / ( Q D c.c.n.M.~ N.A.V.:X:X'.K.*.;.#.` a 7 w g n K P.@X>.L.=XfX>. .i.KXKXKXPXPX",
"LXLXLXLXLXLXLXLXHXQ.$X8.v #.t.;.@ . O & . # 0 { / Q ( D B.B.B.V.g.n.V.F.).:XE.Y.P.;.` #.) u % 7 v v $Xr.o.+XcXeX*X[._ u.mXIXKXLX",
"LXLXLXLXPXLXLXKXmXQ..X` g 0.P.-.. . 1   . 8 ] [ W ( W Q C.z.F.S.z.c.v.v.H.:XW.,.!.-.#.#.O.` v w w U .X-.dXBXsXOXsX&X%X8.$.@.s.JX",
"LXLXLXLXLXLXLXLX0Xp.Q._ F 0.0.v     1   . u ^ W Q Q D Q M.A.C.G.c.c.B.V.:X,XT.,.t.*.o.O.*.o.o.T q -.e.eXBXxXL.`.=XrX&XgXzXyXQ. X",
"LXLXLXLXLXLXLXHX X!.e._ K ;.9.y   o <   . u ^ W W g.g.b.^.N.W.(.m.B.V.V.:X2X2.%.o.O.*.` *.O.o.u r n }.DXxX+XR K.*X*XrXhXgXVXFXa.",
"LXLXLXLXLXLXKXAXi.P...U ;.;.;.%   o < o   8 ^ / D g.W Z 0 6 0 W.C.B.B.D.;X<Xo.V _ R O.T T I O.# r r.bXgX-X=.l 2.`.L.OXnXlXMXbX8X",
"LXLXLXLXLXJXKX.Xr.-.J I *.*.`   + o 5 <   6 H / ~ / 6 # # 8 @ Z W.V.B./.;X<Xg > Y R O.k I k q o.wXnXwXI.:.e f =.L.L.+XeXgXVXlXMX",
"LXLXLXLXKXKX5X8.P.T J R 3.R y   + + 5 <   # S ~ [ A 8 w w K $.R A.S.B.;X;XT.q c h ` n I r r {.BXbX!.%.U j $ k 1.y.L.|.wXfXVXMXVX",
"LXLXLXKXIX6XQ.Q.9.J I O.*.R % .   + o < . @ u ! j.A E T -.!.Q.>.m.G.A.;XE.^ - > r f K n r .XMXgX8.q % - e X h  .e.y.U.&XbXVXVXbX",
"LXLXKXHXi.zX5X0...J F *.o.u       + o 5 O   8 P N.H P.9.P.$X8XR M.S.S.>X;XH r . q r r m uXzXXXq.% . . $ . . c b %.:.:.{.qXnXDXDX",
"JXKXFXQ.pXMX8.8...g J O._ - .   .     o 1   % F <.Z Y.OX}.9X.Xu M.S.G.,XE.R n - 7 q ` bXzXu.m @ % y : . .   : x m _ 5.u.8XbXDXDX",
"JXzX4.MXSX!.#.8._ g J O.d .   . .       1 . X r ^ Z R U.P.#...R m.V./.;XZ.E ..b . 9.MX8X..M a _ _ y $ @ . . X i N B V @. XXXnXMX",
"zXu.SXMXSX.X;.#.B y J I $     .         O O   - ^ A u -.T 8..XY.b.S.H.;XN.L K - Q.MX.Xn -.-.%.!.8.y - $ X .   : z i N @.p.p.qXyX",
"4.8XMXlXSX@X` ` V t u u $               + 1   - P A ` gX@X9X8X;.( (.V.;XR 7 g $XVX[.r r.gXo.8XlX&.r b - X .   X p $ 3 _ u.8.p.qX",
"@.!.rXCXhX*XK m _ t t y . + +             & + . P P w $XU.P.i.S Q /.G.E.w M qXbX!.r t.nX,.1.VXyXj Y :.b .     . $ ; i _ $.$.e.oX",
"' }.hXCXnXdXP.y - = x N . + o o           O 1 . u P 6 ` U u a 9 m./.A.Z.I qX8X>.n t.hX[.o.hXnX=.f I.].b .     . . $ t c V _ &.p.",
"$.8X9XhXZXgX$XQ.@.t @ $ . .               . 1 . @ T w . > = . # A.S.A.Z.=X].Y r P.bXI.I wXnXU.r r.nX%Xh .     . . X ; : c B V $.",
"@.P.*XjXZXsX..&.8X$XQ.m . .                   2 . u T 7 . . @ F ;XR.Z.<.E e I .XfX&Xr }.nX|.f T fXnX:.M .     +   O X . x x c d ",
"_ t.*XjXhX*Xi.q  .L.XXqX{.XXi.$               O @ 8 R Z 0 H b.M.R.W.<.r q } wX-XI.w K.nXnX} f =XDXU.e &.&               2 ; : z ",
"c 8.&X*XsXOX.XY s +.`.|.].p.e.t               . $ # P A ^ / C.m.W.N.j T |.gX=X>.r t.nXnX>.f }.VX&Xe %.].X +             & X & 3 ",
"- #.Y.Y.sX!.@X8.% h X.&.@.B $                   $ @ u L ^ / N.b.N.G - U.=X1Xy.q t.BXxXr.q r.BX%Xf k uXa.X +             +   . ; ",
"% M 9.K.*XY..X$Xq q t i i   X O                   : % a P P H G u u X.oX`.`.E E nXxX&XT -.BXfXk r #XnX_ X O                   X ",
"q m #.9.!.K.Y.eXo.q y : $                         . & 2 y y y 7 f } 1.L.} s 1.L.gXgXt.f %XnXo.f +XbX].b z &                     ",
"X t ) #.9.t.!.Y.L.O.m $ : .                         + , , . . p.k E l s f L.cX`.r.K.j r.ZXr.f +XfXqXY m i O                     ",
"  $ c M #.>.U.L.y.>._ t p O                           . . . i.eXI s f +.L.|.#X1.k r y.nX%Xf +XdX#XX.Y &.; .                     ",
". = z m _ #.t.P.,.>.U . N ,                           . @.$.%X#Xl | 1.t.>.T k s j K.dX=Xr U.fX+XX.M $XV X                       ",
"    X X c _ #.9.=.=.U $ & p .                 X   . . x lX:.L.#XI r s e q r O.t.+X#XP.f =.eX+XO.k &X8.c X                       ",
"    . X i m ) `  ...4.:   3 x =         +     . = _ b m ` n L.#Xj I t.{.XX.XwXeXeXt.r f wXgXO.j &XI.M =   .                     ",
"      X : > c m ) ) $.p   >  .M   + O .   .     &.{.XXrX$X-.I.rXI f Y Y X.Y X.X.j q >.#XxXr.q &X&X%.b .       5                 ",
"      O X X : x B x p p . $ M e.c . X z V @.2 > X.y.{.r.J ` OX&XT r r - r % r f 1.&X#X`.}.q I.fXe.b . i .   & s.                ",
"    +   +   . ; N p 2 & p X $ C 5.M . > @. Xa.h s s f  .[.9.}.+XT >.t.`.I.U.}.+XeX#X[.+.- `.fX:.y $ V : .   6.aX        .   . 2 ",
"        o     O 1 & O + N p . z 5.p. .> X $.oXXXp.e.U.gXfX,.[.#XI j :.{.rXeXeX%XI.[.U.q :.bXt.- @ q.V   .   s.AX          & p z ",
"                +       1 V X X c p.].e.h s M  .].U.{.%.J r I..Xf % q q _ ..%... .Y % X.wX-XX.% s.6.$ $     iXGX. . + + ; p z i ",
"                        . 2 V   3 5.p.].].X.s - h h q h t.}.>.|.j ,.>. .U r r q j %.].qXrX:.- U.5X@ $ =     AXJX+ . O O 2 2 N ' ",
"C                   .       p p . d &.].-XoX&.X.Y X.r..XnXeX-.#XE =.|.L.#X|.+X#XwXgXrX{.e.e i.0Xt @ i   . 3 IXLXC . , & & V V V ",
"iX                  X         z >   = X.&.|.XXoXqX{.%XbX$XJ K.+Xf s +.+.[.[.+XwX&X%XU.:.- u.pXV $ . . .   4.KXJX6.  2 2 B p x q.",
"LXC                 X   X       b >   . V p.I.].gX|.qXQ...[.U.+Xk k s f I | :.U.].:.e - e.yX .. c X     . ~.JXLXs.  2 i x V ' w.",
"PX0XO +           + q.6.  X   . X M _ d $  .%. .].:.s h $XT ,.dXo.-  .%.k s e s e e M ].6Xm   q.V   X .   pXLXLX7X  2 i B V ' s.",
"LXaX  +             iXGXO         = x u.@.= X   $ e  ..X9.>.K.}.%.s d h &.i.Q.p.i.].8X].- X 5.$..   $   . UXLXLXAXO ; V B $.8.w.",
"LXaX                AXJX5X  +       & V a.i.t.%.:.U.wXM }.P.-.I.I h Y h - d  .8.8.e.b   . p.5.  i       z GXKXLXGX4 1 z ' 4.q.i.",
"LXaX              4 GXKXKX7.      . $ X  .e.XXXX|.wXY e.eX` o.U.I - b %.%.M $   - X . b XXe.X V t       7.JXKXLXLXC O x @.q.i.Q.",
"LXaX              C LXPXLXAX1     & z     $ X.:.+.k  ..XT .X=.>.e.e e b %.Q.].e.@.@. XtX8.X m a.. . $   u.LXKXKXLX6.  C $.u.P.!.",
"LXzX    O O X X   u.PXKXLXLX0X    . z V - . . . . k {.` P.9XO.r.Y e Y h = e &.e.8.i.p. .  c 0X4.  . X X 5XKXLXKXPX7X  V 4.Q..X.X",
"LXaX  + & O O O   5XLXPXKXPXUXO .   X : c  ._ Y X.|.>.:.lXt.t.k k - d :.e.M - X $ d = X m  Xq.$   : ; . iXKXLXKXPXiXO V 4.Q..X.X",
"LXiX  X 1 1 1 1 + iXLXPXLXLXLX' .     X $ _ %.&.X.k X.uX-.r.t.I k h d d &.].p.M - $ $ @. X@.. X 3 z     UXKXKXKXLXAX4 B 8..X8X!.",
"KX0X  O 4 4 4 4 1 mXLXLXLXLXLX~..   & > . $ d h e M wX:.n 9X} T %.Y %.b - b M 8.p.8.u.u.V     X $ :   V KXKXKXPXLXGXz B q.8X8XQ."
};